<svg width="35" height="35" viewBox="0 0 35 35" fill="none" xmlns="http://www.w3.org/2000/svg">
<circle cx="17.3687" cy="17.3687" r="17.3687" fill="#33A8F1"/>
<path d="M13.5743 12.1188C13.574 12.7296 13.2035 13.2792 12.6374 13.5084C12.0713 13.7377 11.4228 13.6009 10.9976 13.1626C10.5723 12.7242 10.4554 12.0718 10.7018 11.5129C10.9482 10.9541 11.5088 10.6005 12.1193 10.6188C12.9301 10.6432 13.5746 11.3077 13.5743 12.1188ZM13.6193 14.7288H10.6193V24.1188H13.6193V14.7288ZM18.3593 14.7288H15.3743V24.1188H18.3293V19.1913C18.3293 16.4463 21.9068 16.1913 21.9068 19.1913V24.1188H24.8693V18.1713C24.8693 13.5438 19.5743 13.7163 18.3293 15.9888L18.3593 14.7288Z" fill="white"/>
</svg>
