<svg width="35" height="35" viewBox="0 0 35 35" fill="none" xmlns="http://www.w3.org/2000/svg">
<circle cx="17.3687" cy="17.3687" r="17.3687" fill="url(#paint0_linear_432_995)"/>
<path d="M17.3689 15.1187C16.1259 15.1187 15.1189 16.126 15.1189 17.3687C15.1189 18.6116 16.1262 19.6187 17.3689 19.6187C18.6119 19.6187 19.6189 18.6113 19.6189 17.3687C19.6189 16.1257 18.6116 15.1187 17.3689 15.1187ZM17.3689 13.6187C19.4392 13.6187 21.1189 15.2965 21.1189 17.3687C21.1189 19.439 19.4411 21.1187 17.3689 21.1187C15.2985 21.1187 13.6189 19.4408 13.6189 17.3687C13.6189 15.2983 15.2967 13.6187 17.3689 13.6187ZM22.2439 13.4305C22.2439 13.9481 21.8233 14.368 21.3064 14.368C20.7888 14.368 20.3689 13.9475 20.3689 13.4305C20.3689 12.9136 20.7894 12.4937 21.3064 12.4937C21.8226 12.493 22.2439 12.9136 22.2439 13.4305ZM17.3689 11.3687C15.513 11.3687 15.2105 11.3736 14.3474 11.412C13.7593 11.4396 13.3651 11.5187 12.9988 11.6609C12.6733 11.7871 12.4385 11.9379 12.1883 12.1881C11.9372 12.4392 11.7867 12.6734 11.661 12.999C11.5184 13.3661 11.4394 13.7597 11.4122 14.347C11.3734 15.1751 11.3689 15.4644 11.3689 17.3687C11.3689 19.2245 11.3738 19.527 11.4122 20.3901C11.4399 20.978 11.5191 21.3728 11.6609 21.7382C11.7875 22.0641 11.9385 22.2995 12.1875 22.5485C12.4396 22.8002 12.6745 22.9512 12.9971 23.0757C13.3678 23.219 13.7618 23.2982 14.3473 23.3253C15.1753 23.3641 15.4647 23.3687 17.3689 23.3687C19.2248 23.3687 19.5273 23.3637 20.3904 23.3253C20.9769 23.2978 21.372 23.2184 21.7384 23.0766C22.0635 22.9504 22.2996 22.7988 22.5487 22.55C22.8009 22.2975 22.9515 22.0632 23.0762 21.7399C23.2191 21.3705 23.2985 20.976 23.3256 20.3903C23.3643 19.5623 23.3689 19.2728 23.3689 17.3687C23.3689 15.5128 23.364 15.2103 23.3256 14.3472C23.298 13.7604 23.2185 13.3648 23.0766 12.9985C22.9507 12.6739 22.7994 12.4384 22.5495 12.1881C22.2979 11.9365 22.0644 11.7863 21.7385 11.6607C21.3717 11.5183 20.9775 11.4391 20.3905 11.412C19.5625 11.3732 19.2731 11.3687 17.3689 11.3687ZM17.3689 9.86865C19.4064 9.86865 19.6608 9.87615 20.4608 9.91365C21.2589 9.95053 21.8033 10.0768 22.2814 10.2624C22.7757 10.453 23.1933 10.7105 23.6101 11.1274C24.0264 11.5443 24.2839 11.963 24.4752 12.4562C24.6601 12.9337 24.7864 13.4786 24.8239 14.2768C24.8595 15.0768 24.8689 15.3311 24.8689 17.3687C24.8689 19.4062 24.8614 19.6605 24.8239 20.4605C24.787 21.2587 24.6601 21.803 24.4752 22.2812C24.2845 22.7756 24.0264 23.193 23.6101 23.6099C23.1933 24.0262 22.7739 24.2837 22.2814 24.4749C21.8033 24.6599 21.2589 24.7862 20.4608 24.8237C19.6608 24.8593 19.4064 24.8687 17.3689 24.8687C15.3314 24.8687 15.077 24.8612 14.277 24.8237C13.4789 24.7868 12.9351 24.6599 12.4564 24.4749C11.9626 24.2843 11.5445 24.0262 11.1276 23.6099C10.7108 23.193 10.4539 22.7737 10.2626 22.2812C10.077 21.803 9.9514 21.2587 9.9139 20.4605C9.87827 19.6605 9.8689 19.4062 9.8689 17.3687C9.8689 15.3311 9.8764 15.0768 9.9139 14.2768C9.95077 13.478 10.077 12.9343 10.2626 12.4562C10.4533 11.9624 10.7108 11.5443 11.1276 11.1274C11.5445 10.7105 11.9633 10.4537 12.4564 10.2624C12.9345 10.0768 13.4783 9.95115 14.277 9.91365C15.077 9.87803 15.3314 9.86865 17.3689 9.86865Z" fill="white"/>
<defs>
<linearGradient id="paint0_linear_432_995" x1="17.3687" y1="0" x2="17.3687" y2="34.7373" gradientUnits="userSpaceOnUse">
<stop stop-color="#F9CE34"/>
<stop offset="0.5" stop-color="#EE2A7B"/>
<stop offset="1" stop-color="#6228D7"/>
</linearGradient>
</defs>
</svg>
