<svg width="59" height="59" viewBox="0 0 59 59" fill="none" xmlns="http://www.w3.org/2000/svg">
<circle cx="29.5" cy="29.5" r="29.5" fill="black" fill-opacity="0.6"/>
<path d="M27.3656 28.6821C28.302 30.3288 29.6712 31.698 31.3179 32.6344L32.2024 31.3961C32.4965 30.9845 33.0516 30.8573 33.4956 31.0998C34.9024 31.8683 36.4571 32.3353 38.0789 32.4637C38.599 32.5049 39 32.9389 39 33.4606V37.9234C39 38.4361 38.6122 38.8657 38.1022 38.9181C37.5723 38.9726 37.0377 39 36.5 39C27.9396 39 21 32.0604 21 23.5C21 22.9623 21.0274 22.4277 21.0819 21.8978C21.1343 21.3877 21.5639 21 22.0767 21H26.5394C27.0611 21 27.4951 21.401 27.5363 21.9211C27.6647 23.5429 28.1317 25.0976 28.9002 26.5044C29.1427 26.9484 29.0155 27.5035 28.6039 27.7976L27.3656 28.6821ZM24.8443 28.0252L26.7442 26.6681C26.2055 25.5051 25.8363 24.2718 25.6473 23H23.0091C23.003 23.1663 23 23.333 23 23.5C23 30.9558 29.0442 37 36.5 37C36.667 37 36.8337 36.997 37 36.9909V34.3527C35.7282 34.1637 34.4949 33.7945 33.3319 33.2558L31.9748 35.1558C31.4258 34.9425 30.8956 34.6915 30.3874 34.4061L30.3293 34.373C28.3697 33.2587 26.7413 31.6303 25.627 29.6707L25.5939 29.6126C25.3085 29.1044 25.0575 28.5742 24.8443 28.0252Z" fill="white"/>
</svg>
