<svg width="35" height="35" viewBox="0 0 35 35" fill="none" xmlns="http://www.w3.org/2000/svg">
<circle cx="17.3687" cy="17.3687" r="17.3687" fill="#D02929"/>
<path d="M23.0743 13.6148C23.0172 13.3914 22.8555 13.2228 22.6704 13.1708C22.3416 13.0791 20.7449 12.8687 17.3699 12.8687C13.9949 12.8687 12.3985 13.0792 12.0683 13.1711C11.885 13.2221 11.7234 13.3906 11.6655 13.6148C11.5839 13.9331 11.3699 15.2656 11.3699 17.3687C11.3699 19.4717 11.5839 20.8043 11.6657 21.1235C11.7226 21.346 11.8842 21.5145 12.0685 21.5663C12.3985 21.6581 13.9949 21.8687 17.3699 21.8687C20.7449 21.8687 22.3416 21.6582 22.6714 21.5663C22.8548 21.5153 23.0164 21.3467 23.0743 21.1226C23.1559 20.8043 23.3699 19.4687 23.3699 17.3687C23.3699 15.2687 23.1559 13.9331 23.0743 13.6148ZM24.5273 13.2423C24.8699 14.5787 24.8699 17.3687 24.8699 17.3687C24.8699 17.3687 24.8699 20.1587 24.5273 21.495C24.3364 22.2341 23.7794 22.815 23.0733 23.0114C21.792 23.3687 17.3699 23.3687 17.3699 23.3687C17.3699 23.3687 12.9504 23.3687 11.6664 23.0114C10.9577 22.8123 10.4007 22.2314 10.2124 21.495C9.86987 20.1587 9.86987 17.3687 9.86987 17.3687C9.86987 17.3687 9.86987 14.5787 10.2124 13.2423C10.4033 12.5032 10.9604 11.9223 11.6664 11.7259C12.9504 11.3687 17.3699 11.3687 17.3699 11.3687C17.3699 11.3687 21.792 11.3687 23.0733 11.7259C23.782 11.925 24.339 12.5059 24.5273 13.2423ZM15.8699 19.9937V14.7437L20.3699 17.3687L15.8699 19.9937Z" fill="white"/>
</svg>
